<?xml version="1.0" encoding="UTF-8" standalone="no"?>
<svg
   width="24"
   height="24"
   fill="none"
   viewBox="0 0 24 24"
   version="1.1"
   id="svg1"
   sodipodi:docname="Port.dark.svg"
   inkscape:export-filename="Port.dark.png"
   inkscape:export-xdpi="192"
   inkscape:export-ydpi="192"
   inkscape:version="1.3.2 (091e20e, 2023-11-25, custom)"
   xmlns:inkscape="http://www.inkscape.org/namespaces/inkscape"
   xmlns:sodipodi="http://sodipodi.sourceforge.net/DTD/sodipodi-0.dtd"
   xmlns="http://www.w3.org/2000/svg"
   xmlns:svg="http://www.w3.org/2000/svg">
  <defs
     id="defs1" />
  <sodipodi:namedview
     id="namedview1"
     pagecolor="#ffffff"
     bordercolor="#000000"
     borderopacity="0.25"
     inkscape:showpageshadow="2"
     inkscape:pageopacity="0.0"
     inkscape:pagecheckerboard="0"
     inkscape:deskcolor="#d1d1d1"
     inkscape:zoom="37.958333"
     inkscape:cx="11.986828"
     inkscape:cy="12"
     inkscape:window-width="1920"
     inkscape:window-height="1166"
     inkscape:window-x="-11"
     inkscape:window-y="-11"
     inkscape:window-maximized="1"
     inkscape:current-layer="svg1" />
  <path
     d="M21.707 3.707a1 1 0 0 0-1.414-1.414L18.496 4.09a4.252 4.252 0 0 0-5.251.604l-1.068 1.069a1.75 1.75 0 0 0 0 2.474l3.585 3.586a1.75 1.75 0 0 0 2.475 0l1.068-1.068a4.252 4.252 0 0 0 .605-5.25l1.797-1.798ZM10.707 11.707a1 1 0 0 0-1.414-1.414l-1.47 1.47-.293-.293a.75.75 0 0 0-1.06 0l-1.775 1.775a4.252 4.252 0 0 0-.605 5.25l-1.797 1.798a1 1 0 1 0 1.414 1.414l1.798-1.797a4.252 4.252 0 0 0 5.25-.605l1.775-1.775a.75.75 0 0 0 0-1.06l-.293-.293 1.47-1.47a1 1 0 0 0-1.414-1.414l-1.47 1.47-1.586-1.586 1.47-1.47Z"
     fill="#212121"
     id="path1"
     style="fill:#ffffff;fill-opacity:1" />
</svg>
