<?xml version="1.0" encoding="UTF-8" standalone="no"?>
<svg
   width="16"
   height="16"
   viewBox="0 0 16 16"
   fill="none"
   version="1.1"
   id="svg1"
   sodipodi:docname="ProcessKiller.dark.svg"
   inkscape:version="1.3.2 (091e20e, 2023-11-25, custom)"
   inkscape:export-filename="ProcessKiller.dark.png"
   inkscape:export-xdpi="288"
   inkscape:export-ydpi="288"
   xmlns:inkscape="http://www.inkscape.org/namespaces/inkscape"
   xmlns:sodipodi="http://sodipodi.sourceforge.net/DTD/sodipodi-0.dtd"
   xmlns="http://www.w3.org/2000/svg"
   xmlns:svg="http://www.w3.org/2000/svg">
  <defs
     id="defs1" />
  <sodipodi:namedview
     id="namedview1"
     pagecolor="#ffffff"
     bordercolor="#000000"
     borderopacity="0.25"
     inkscape:showpageshadow="2"
     inkscape:pageopacity="0.0"
     inkscape:pagecheckerboard="0"
     inkscape:deskcolor="#d1d1d1"
     inkscape:zoom="45.254834"
     inkscape:cx="7.2478445"
     inkscape:cy="8.1206794"
     inkscape:window-width="1920"
     inkscape:window-height="1166"
     inkscape:window-x="-11"
     inkscape:window-y="-11"
     inkscape:window-maximized="1"
     inkscape:current-layer="svg1" />
  <path
     d="m 11.5,1.9765625 c 1.3807,0 2.5,1.11929 2.5,2.5 V 8.6739288 C 13.726169,8.4416762 13.37985,8.2040775 13,8.0468737 V 5.9765625 H 3 V 11.476563 C 3,12.304963 3.67157,13 4.5,13 h 3.3437488 c 0.1259535,0.372037 0.3596463,0.730075 0.58018,1 H 4.5 C 3.11929,14 2,12.8807 2,11.5 v -7 C 2,3.11929 3.11929,1.9765625 4.5,1.9765625 Z M 11.5,3 h -7 C 3.67157,3 3,3.67157 3,4.5 V 5 H 13 V 4.5 C 13,3.67157 12.3284,3 11.5,3 Z m 1.8536,7.3536 c 0.1952,-0.1953 0.1952,-0.51189 0,-0.70715 -0.1953,-0.19527 -0.5119,-0.19527 -0.7072,0 L 11.5,10.7929 10.3536,9.64645 c -0.1953,-0.19527 -0.51189,-0.19527 -0.70715,0 -0.19527,0.19526 -0.19527,0.51185 0,0.70715 L 10.7929,11.5 9.64645,12.6464 c -0.19527,0.1953 -0.19527,0.5119 0,0.7072 0.19526,0.1952 0.51185,0.1952 0.70715,0 l 1.1464,-1.1465 1.1464,1.1465 c 0.1953,0.1952 0.5119,0.1952 0.7072,0 0.1952,-0.1953 0.1952,-0.5119 0,-0.7072 L 12.2071,11.5 Z"
     fill="#212121"
     id="path1"
     sodipodi:nodetypes="ssccccssccssssssssccssccccccccccccccccc"
     style="fill:#ffffff;fill-opacity:1" />
</svg>
