<?xml version="1.0" encoding="UTF-8" standalone="no"?>
<!-- Uploaded to: SVG Repo, www.svgrepo.com, Generator: SVG Repo Mixer Tools -->

<svg
   fill="#000000"
   width="800px"
   height="800px"
   viewBox="0 0 24 24"
   version="1.1"
   id="svg1"
   sodipodi:docname="ProcessKiller.dark.svg"
   inkscape:export-filename="ProcessKiller.dark.png"
   inkscape:export-xdpi="5.7600002"
   inkscape:export-ydpi="5.7600002"
   inkscape:version="1.3.2 (091e20e, 2023-11-25, custom)"
   xmlns:inkscape="http://www.inkscape.org/namespaces/inkscape"
   xmlns:sodipodi="http://sodipodi.sourceforge.net/DTD/sodipodi-0.dtd"
   xmlns="http://www.w3.org/2000/svg"
   xmlns:svg="http://www.w3.org/2000/svg">
  <defs
     id="defs1" />
  <sodipodi:namedview
     id="namedview1"
     pagecolor="#ffffff"
     bordercolor="#000000"
     borderopacity="0.25"
     inkscape:showpageshadow="2"
     inkscape:pageopacity="0.0"
     inkscape:pagecheckerboard="0"
     inkscape:deskcolor="#d1d1d1"
     inkscape:zoom="1.11625"
     inkscape:cx="399.55207"
     inkscape:cy="400"
     inkscape:window-width="1920"
     inkscape:window-height="1166"
     inkscape:window-x="-11"
     inkscape:window-y="-11"
     inkscape:window-maximized="1"
     inkscape:current-layer="svg1" />
  <path
     d="M13.5,21.008331 L5.5,21.008331 C4.11928813,21.008331 3,19.8890429 3,18.508331 L3,5.5 C3,4.11928813 4.11928813,3 5.5,3 L18.5071085,3 C19.8878203,3 21.0071085,4.11928813 21.0071085,5.5 L21.0071085,13.5 C21.0071085,13.7761424 20.7832508,14 20.5071085,14 C20.2309661,14 20.0071085,13.7761424 20.0071085,13.5 L20.0071085,8 L4,8 L4,18.508331 C4,19.3367581 4.67157288,20.008331 5.5,20.008331 L13.5,20.008331 C13.7761424,20.008331 14,20.2321886 14,20.508331 C14,20.7844734 13.7761424,21.008331 13.5,21.008331 Z M20.0071085,7 L20.0071085,5.5 C20.0071085,4.67157288 19.3355356,4 18.5071085,4 L5.5,4 C4.67157288,4 4,4.67157288 4,5.5 L4,7 L20.0071085,7 Z M5,5 L6,5 L6,6 L5,6 L5,5 Z M7,5 L8,5 L8,6 L7,6 L7,5 Z M9,5 L10,5 L10,6 L9,6 L9,5 Z M18.5,17.7928932 L20.1464466,16.1464466 C20.3417088,15.9511845 20.6582912,15.9511845 20.8535534,16.1464466 C21.0488155,16.3417088 21.0488155,16.6582912 20.8535534,16.8535534 L19.2071068,18.5 L20.8535534,20.1464466 C21.0488155,20.3417088 21.0488155,20.6582912 20.8535534,20.8535534 C20.6582912,21.0488155 20.3417088,21.0488155 20.1464466,20.8535534 L18.5,19.2071068 L16.8535534,20.8535534 C16.6582912,21.0488155 16.3417088,21.0488155 16.1464466,20.8535534 C15.9511845,20.6582912 15.9511845,20.3417088 16.1464466,20.1464466 L17.7928932,18.5 L16.1464466,16.8535534 C15.9511845,16.6582912 15.9511845,16.3417088 16.1464466,16.1464466 C16.3417088,15.9511845 16.6582912,15.9511845 16.8535534,16.1464466 L18.5,17.7928932 Z"
     id="path1"
     style="fill:#ffffff;fill-opacity:1" />
</svg>
