<?xml version="1.0" encoding="UTF-8" standalone="no"?>
<svg
   width="20"
   height="20"
   viewBox="0 0 20 20"
   fill="none"
   version="1.1"
   id="svg1"
   sodipodi:docname="Process.dark.svg"
   inkscape:export-filename="Process.dark.png"
   inkscape:export-xdpi="230.39999"
   inkscape:export-ydpi="230.39999"
   inkscape:version="1.4 (86a8ad7, 2024-10-11)"
   xmlns:inkscape="http://www.inkscape.org/namespaces/inkscape"
   xmlns:sodipodi="http://sodipodi.sourceforge.net/DTD/sodipodi-0.dtd"
   xmlns="http://www.w3.org/2000/svg"
   xmlns:svg="http://www.w3.org/2000/svg">
  <defs
     id="defs1" />
  <sodipodi:namedview
     id="namedview1"
     pagecolor="#ffffff"
     bordercolor="#000000"
     borderopacity="0.25"
     inkscape:showpageshadow="2"
     inkscape:pageopacity="0.0"
     inkscape:pagecheckerboard="0"
     inkscape:deskcolor="#d1d1d1"
     inkscape:zoom="45.55"
     inkscape:cx="10.021954"
     inkscape:cy="10"
     inkscape:window-width="1920"
     inkscape:window-height="1166"
     inkscape:window-x="-11"
     inkscape:window-y="-11"
     inkscape:window-maximized="1"
     inkscape:current-layer="svg1" />
  <path
     d="M5.64645 9.14645C5.84171 8.95118 6.15829 8.95118 6.35355 9.14645L8.35355 11.1464C8.44732 11.2402 8.5 11.3674 8.5 11.5C8.5 11.6326 8.44732 11.7598 8.35355 11.8536L6.35355 13.8536C6.15829 14.0488 5.84171 14.0488 5.64645 13.8536C5.45118 13.6583 5.45118 13.3417 5.64645 13.1464L7.29289 11.5L5.64645 9.85355C5.45118 9.65829 5.45118 9.34171 5.64645 9.14645ZM14.5 13H9.5C9.22386 13 9 13.2239 9 13.5C9 13.7761 9.22386 14 9.5 14H14.5C14.7761 14 15 13.7761 15 13.5C15 13.2239 14.7761 13 14.5 13ZM2.99609 5.5C2.99609 4.11929 4.11538 3 5.49609 3H14.4961C15.8768 3 16.9961 4.11929 16.9961 5.5V6H16.999V7H16.9961V14.5C16.9961 15.8807 15.8768 17 14.4961 17H5.49609C4.11538 17 2.99609 15.8807 2.99609 14.5V5.5ZM15.9961 6V5.5C15.9961 4.67157 15.3245 4 14.4961 4H5.49609C4.66767 4 3.99609 4.67157 3.99609 5.5V6H15.9961ZM3.99609 7V14.5C3.99609 15.3284 4.66767 16 5.49609 16H14.4961C15.3245 16 15.9961 15.3284 15.9961 14.5V7H3.99609Z"
     fill="#212121"
     id="path1"
     style="fill:#ffffff;fill-opacity:1" />
</svg>
